<svg width="8248" height="1000" viewBox="0 0 8248 1000" fill="none" xmlns="http://www.w3.org/2000/svg">
<path d="M0 23.2824C3.34342 21.7448 6.88352 21.7627 10.4772 21.7627C213.615 21.7627 416.754 21.7627 619.892 21.7627C621.68 21.7627 623.468 21.7627 625.256 21.7627C627.75 21.8521 629.028 23.202 629.073 25.6961C629.073 27.1801 629.073 28.673 629.073 30.166C629.073 80.7762 629.073 131.38 629.073 181.979C629.073 192.814 629.001 192.706 618.345 192.858C592.769 193.153 567.336 195.254 541.885 197.873C476.906 204.62 413.084 219.811 352.034 243.063C215.329 294.913 101.724 378.534 10.656 492.774C9.79922 493.993 8.87397 495.163 7.88475 496.278C4.738 499.416 5.20286 502 7.95627 505.477C19.998 520.621 32.3168 535.532 45.3597 549.827C83.2064 591.507 125.349 629.074 171.087 661.903C230.804 704.727 296.257 738.927 365.515 763.493C410.47 779.575 456.847 791.363 504.025 798.697C525.15 801.933 546.363 804.186 567.64 806.233C586.332 808.021 605.079 806.859 623.718 808.808C627.803 809.237 629.243 809.872 629.225 814.341C629.055 867.023 629.135 919.713 629.091 972.394C629.091 978.991 628.921 979.036 621.85 979.126C617.085 979.197 612.32 979.126 607.546 979.126H10.6471C7.07125 979.126 3.54903 979.018 0 978.965V23.2824Z" fill="#0F0C0C"/>
<path d="M2006.26 21.4499H2131.41C2133.5 21.4499 2135.59 21.4946 2137.67 21.4499C2140.59 21.4499 2141.96 22.8356 2142.09 25.7499C2142.74 40.886 2144.27 55.9715 2146.67 70.9308C2149.14 86.1818 2151.27 101.495 2153.62 116.773C2157.09 139.39 2160.61 162.008 2164.17 184.625C2167.56 206.348 2170.99 228.063 2174.32 249.795C2177.58 270.946 2180.71 292.106 2183.94 313.266C2187.18 334.426 2190.5 355.569 2193.71 376.738C2197.16 399.364 2200.45 422.017 2203.94 444.634C2207.17 465.481 2210.67 486.293 2213.89 507.14C2217.23 528.872 2220.33 550.64 2223.63 572.399C2226.72 592.674 2229.98 612.923 2233.11 633.189C2235.6 649.343 2237.98 665.515 2240.48 681.66C2242.43 694.291 2243.98 707.012 2246.62 719.501C2249.21 731.784 2255.79 742.369 2273.12 744.139C2292.42 746.114 2304.61 738.587 2310.2 719.867C2316.13 699.959 2321.64 679.934 2327.28 659.972C2334.38 634.834 2341.39 609.678 2348.5 584.548C2356.58 555.983 2364.71 527.436 2372.87 498.907C2381.01 470.38 2389.22 441.872 2397.3 413.328C2408.13 375.048 2418.81 336.715 2429.67 298.435C2438.61 267.031 2447.77 235.697 2456.62 204.265C2463.31 179.932 2472.18 156.251 2483.12 133.508C2510.99 76.3661 2553.27 35.503 2614.76 15.8358C2643.59 6.61013 2673.15 2.42638 2703.26 0.781492C2733.58 -1.0114 2763.99 0.282565 2794.05 4.64341C2835.22 10.7224 2873.61 24.0782 2906.51 50.4948C2932.31 71.1811 2951.16 97.2937 2965.58 126.732C2978.3 152.657 2986.63 180.254 2994.11 208.083C3003.05 241.329 3012.42 274.45 3021.55 307.643C3029.27 335.69 3036.95 363.742 3044.6 391.801C3054.82 429.008 3065.07 466.214 3075.33 503.421C3086 542.335 3096.54 581.294 3107.24 620.208C3116.43 653.714 3125.72 687.178 3135.13 720.601C3141.44 743.191 3158.91 747.509 3178.57 742.807C3186.06 741.019 3191.18 735.431 3194.6 728.333C3200.02 717.096 3200.63 704.768 3202.85 692.861C3206.6 672.702 3209.55 652.4 3212.88 632.17C3217.14 606.382 3221.42 580.591 3225.73 554.797C3229.1 534.576 3232.54 514.363 3235.9 494.133C3240.08 468.923 3244.16 443.704 3248.41 418.504C3252.66 393.303 3256.92 368.102 3261.16 342.91C3265.33 318.004 3269.5 293.098 3273.67 268.193C3277.01 248.257 3280.32 228.325 3283.59 208.395C3288.92 176.153 3294.24 143.911 3299.56 111.669C3302.53 93.7894 3305.27 75.8565 3308.69 58.0309C3310.3 48.9533 3311.03 39.7413 3310.86 30.5236C3310.86 21.5036 3310.86 21.4767 3320.24 21.4678C3340.5 21.4678 3360.77 21.4678 3381.03 21.4678H3568.71C3570.79 21.4678 3572.89 21.6287 3574.97 21.4678C3579.28 21.0655 3580.47 22.9607 3580.62 27.1445C3581.14 42.1452 3578.59 56.833 3576.21 71.485C3572.16 96.3998 3567.41 121.207 3562.98 146.059C3558.86 169.148 3554.75 192.245 3550.64 215.35C3547.24 234.669 3544.02 254.014 3540.58 273.324C3536.43 296.728 3532.1 320.105 3527.94 343.509C3524.5 362.81 3521.26 382.137 3517.84 401.438C3513.69 424.851 3509.44 448.237 3505.28 471.641C3500.97 495.921 3496.74 520.21 3492.44 544.49C3488.29 567.903 3484.06 591.289 3479.93 614.702C3476.45 634.297 3473.11 653.92 3469.6 673.516C3466.34 691.636 3462.86 709.721 3459.63 727.851C3456.34 746.284 3453.27 764.753 3450.01 783.187C3441.33 832.266 3424.35 877.616 3390.89 915.699C3365.22 944.932 3333.82 965.654 3297.45 979.018C3263.9 991.277 3228.57 998.015 3192.86 998.972C3185.45 999.195 3178.06 1000.02 3170.62 1000C3137.16 999.91 3104.04 996.853 3071.84 987.422C3038.36 977.588 3008.05 961.792 2981.94 938.316C2946.98 906.893 2924.49 867.55 2908.46 823.996C2898.91 798.027 2892.84 771.074 2885.73 744.434C2877.39 713.169 2869.18 681.88 2861.11 650.567C2854.11 623.552 2847.35 596.474 2840.36 569.458C2833.45 542.729 2826.35 516.053 2819.37 489.35C2811.34 458.61 2803.34 427.863 2795.36 397.111C2789.95 376.425 2784.43 355.774 2779.03 335.079C2772.08 308.612 2765.21 282.141 2758.44 255.668C2757.57 252.52 2756.43 249.454 2755.03 246.505C2750.02 235.277 2741.07 229.761 2728.93 229.734C2716.41 229.734 2707.13 235.268 2702.28 247.024C2697.27 259.119 2694.57 271.965 2690.99 284.508C2677.88 330.457 2664.84 376.431 2651.89 422.428C2644.07 450.141 2636.48 477.925 2628.64 505.638C2618.5 541.638 2608.18 577.593 2598.06 613.602C2587.33 651.882 2576.97 690.295 2565.88 728.494C2556.88 759.568 2549.42 791.116 2538.17 821.511C2523.22 861.793 2502.85 898.749 2472.01 929.287C2445.77 955.302 2414.75 973.449 2379.6 984.543C2351.95 993.268 2323.61 997.568 2294.61 999.142C2274.71 1000.21 2254.77 999.957 2234.91 998.373C2177.25 993.787 2123.29 978.321 2077.36 941.32C2042.31 913.098 2019.1 876.66 2004.65 834.375C1997.7 814.046 1993.8 793.047 1990.39 771.896C1985.23 739.928 1979.57 708.031 1974.3 676.081C1970.13 650.889 1966.25 625.644 1962.12 600.443C1958.89 580.776 1955.4 561.189 1952.11 541.549C1948.87 522.203 1945.74 502.84 1942.55 483.486C1939.31 463.819 1936.07 444.178 1932.82 424.565C1929.51 404.629 1926.19 384.697 1922.84 364.768C1919.21 343.08 1915.51 321.392 1911.93 299.696C1908.77 280.637 1905.79 261.542 1902.62 242.482C1899.22 221.975 1895.61 201.503 1892.22 180.995C1888.93 161.069 1885.85 141.116 1882.61 121.18C1879.36 101.245 1875.85 81.3186 1872.77 61.3475C1871.1 50.4858 1869.54 39.5795 1869.65 28.548C1869.71 21.7002 1869.79 21.5214 1876.65 21.5036C1900.48 21.4231 1924.32 21.5036 1948.17 21.5036L2006.26 21.4499Z" fill="#0F0C0C"/>
<path d="M1508.79 500.499V31.6597C1508.79 29.8717 1508.88 28.0838 1508.79 26.2959C1508.55 22.9256 1509.93 21.2897 1513.4 21.4685C1515.19 21.5668 1516.98 21.4685 1518.76 21.4685H1757.36C1758.85 21.4685 1760.35 21.5758 1761.83 21.4685C1765.85 21.1288 1768.16 22.4161 1767.64 26.9395C1767.54 28.726 1767.54 30.5169 1767.64 32.3033V968.157C1767.64 980.557 1768.93 979.833 1756.27 979.833C1677.01 979.833 1597.77 979.833 1518.57 979.833C1507.53 979.833 1508.86 979.627 1508.86 970.187L1508.79 500.499Z" fill="#0F0C0C"/>
<path d="M3941.63 501.16C3941.63 657.12 3941.63 813.084 3941.63 969.051C3941.63 978.616 3944.02 979.895 3931.11 979.886C3851.89 979.814 3772.66 979.814 3693.43 979.886C3682.63 979.886 3682.62 979.886 3682.62 969.158V31.5878C3682.62 29.7998 3682.7 28.0119 3682.62 26.224C3682.43 22.7018 3684.33 21.4502 3687.53 21.486C3689.31 21.486 3691.1 21.486 3692.89 21.486H3931.46C3932.95 21.486 3934.45 21.5843 3935.93 21.486C3939.96 21.182 3942.19 22.5855 3941.71 27.0285C3941.62 28.5173 3941.62 30.0096 3941.71 31.4984L3941.63 501.16Z" fill="#0F0C0C"/>
<path d="M355.252 500.614C354.921 352.547 475.043 226.534 630.146 227.061C782.709 227.562 903.108 351.26 903.144 500.748C903.144 650.88 782.227 774.926 628.697 774.712C474.936 774.488 354.689 649.226 355.252 500.614ZM629.868 655.27C631.504 655.109 633.091 654.623 634.535 653.84C635.98 653.057 637.253 651.993 638.281 650.71C640.782 647.769 643.053 644.64 645.075 641.35C651.797 630.122 658.234 618.724 664.983 607.514C675.514 590.01 689.237 575.966 708.591 568.18C710.247 567.54 711.85 566.769 713.382 565.873C720.409 561.582 722.42 555.745 718.576 548.441C715.537 542.675 711.639 537.365 708.054 531.903C701.686 522.463 698.463 511.252 698.847 499.872C699.172 489.16 701.526 478.606 705.784 468.771C708.01 463.586 710.566 458.535 712.712 453.314C716.502 444.098 715.608 440.486 707.867 433.817C704.26 430.71 700.498 427.789 696.594 425.065C679.331 413.05 666.137 397.701 657.706 378.347C655.579 373.448 653.237 368.629 651.002 363.766C649.105 359.391 646.549 355.333 643.421 351.733C635.733 343.214 627.222 344.26 622.198 354.648C618.846 361.594 616.343 368.951 613.133 375.978C605.49 392.677 594.45 406.301 577.33 414.168C572.476 416.394 567.497 418.396 562.687 420.685C551.066 426.165 548.723 431.573 552.97 443.552C555.348 450.275 558.378 456.756 560.863 463.443C571.52 492.175 569.562 519.414 550.958 544.606C548.133 548.432 545.121 552.142 542.484 556.093C536.485 565.095 538.014 571.764 547.615 576.395C553.816 579.254 560.173 581.761 566.656 583.904C582.926 589.59 594.566 600.496 602.88 615.309C606.836 622.633 610.361 630.182 613.437 637.918C614.996 641.777 616.787 645.539 618.801 649.182C620.956 652.945 624.272 655.377 629.868 655.27Z" fill="#6BC60F"/>
<path d="M647.846 191.875C668.952 189.077 689.102 183.418 707.741 173.307C759.672 145.156 789.816 101.612 798.729 43.352C799.623 37.7915 799.56 32.088 799.757 26.4382C799.873 23.0679 801.366 21.575 804.736 21.7628C806.819 21.879 808.902 21.7628 810.994 21.7628H1407.03C1415.77 21.7628 1415.8 21.7628 1415.77 30.461C1415.6 73.9702 1411.17 117.05 1403.65 159.907C1395.3 207.306 1382.55 253.824 1365.56 298.856C1339.33 368.492 1303.28 434.023 1258.51 493.462C1257.45 494.893 1256.31 496.269 1255.15 497.619C1254.63 498.08 1254.06 498.484 1253.45 498.826C1097.52 306.097 895.938 203.264 647.846 191.875Z" fill="#0F0C0C"/>
<path d="M1253.1 502.179C1258.97 507.694 1262.69 513.8 1266.81 519.468C1324.46 599.344 1366.04 686.818 1390.76 782.222C1403.02 829.363 1410.85 877.549 1414.14 926.15C1415.2 941.901 1415.61 957.635 1415.93 973.396C1416.02 978.196 1414.39 979.913 1409.81 979.296C1408.62 979.215 1407.42 979.215 1406.23 979.296H808.456C800.187 979.296 800.044 979.296 799.695 971.313C798.959 951.366 794.477 931.736 786.483 913.446C764.053 862.741 725.961 829.923 672.636 814.833C666.379 813.045 659.871 812.303 653.488 811.007C650.713 810.465 647.989 809.691 645.344 808.692C764.479 806.266 877.151 778.306 983.36 724.811C1089.97 671.093 1179.54 596.501 1253.1 502.179Z" fill="#0F0C0C"/>
<path d="M346.445 601.05C349.243 600.755 351.863 599.584 354.259 601.292C354.464 601.435 354.312 602.624 353.999 602.838C350.799 605.038 348.948 601.247 346.445 601.05Z" fill="#0F0C0C"/>
<path d="M629.868 655.27C624.272 655.35 620.928 652.918 618.774 649.119C616.76 645.476 614.968 641.715 613.41 637.855C610.334 630.12 606.809 622.571 602.852 615.247C594.538 600.434 582.899 589.527 566.629 583.842C560.146 581.698 553.788 579.191 547.587 576.333C538.013 571.702 536.458 565.033 542.456 556.031C545.093 552.079 548.106 548.369 550.931 544.543C569.534 519.351 571.492 492.112 560.836 463.38C558.351 456.694 555.32 450.212 552.942 443.49C548.696 431.511 551.074 426.102 562.66 420.622C567.487 418.334 572.493 416.331 577.303 414.105C594.422 406.238 605.463 392.65 613.106 375.915C616.315 368.889 618.818 361.531 622.171 354.585C627.195 344.197 635.705 343.151 643.393 351.671C646.521 355.27 649.078 359.328 650.974 363.704C653.2 368.567 655.551 373.385 657.679 378.284C666.109 397.638 679.304 412.988 696.566 425.003C700.47 427.727 704.233 430.648 707.839 433.754C715.581 440.423 716.475 444.035 712.684 453.252C710.539 458.473 707.982 463.523 705.756 468.708C701.499 478.544 699.145 489.097 698.819 499.809C698.419 511.21 701.64 522.445 708.018 531.903C711.594 537.365 715.5 542.63 718.54 548.441C722.384 555.745 720.373 561.582 713.346 565.873C711.815 566.791 710.213 567.583 708.554 568.242C689.2 576.029 675.478 590.073 664.947 607.577C658.197 618.787 651.761 630.185 645.038 641.413C643.017 644.702 640.745 647.831 638.244 650.773C637.215 652.04 635.945 653.09 634.507 653.862C633.069 654.634 631.492 655.112 629.868 655.27Z" fill="#0F0C0C"/>
<path d="M4050 19.4253V53.645L4266.54 977.575L4680.92 976.206L4897.46 53.645V19.4253H4640.42L4506.45 764.044H4441.02L4307.04 19.4253H4050ZM4990.48 19.4253V977.575H5236.62V19.4253H4990.48ZM6024.92 714.768C6024.92 584.733 5959.5 508.082 5853.55 450.593L5741.4 390.366C5658.83 346.565 5607.42 316.452 5607.42 271.282C5607.42 227.481 5647.93 204.211 5700.89 204.211C5785.02 204.211 5880.05 245.275 5947.02 306.87H5978.18V94.7085C5914.31 41.326 5808.38 4.36877 5675.97 4.36877C5498.37 4.36877 5355.05 102.921 5355.05 286.338C5355.05 441.011 5460.99 512.188 5557.57 560.095L5666.61 614.847C5739.84 651.804 5772.56 675.073 5772.56 721.612C5772.56 766.782 5727.37 794.157 5665.06 794.157C5582.5 794.157 5476.57 746.25 5409.58 691.499H5378.42V903.66C5422.04 935.142 5548.22 994 5697.77 994C5887.83 994 6024.92 892.71 6024.92 714.768ZM6121.55 19.4253V977.575H6367.7V19.4253H6121.55ZM6486.12 498.5C6486.12 846.171 6701.1 994 6942.57 994C7184.03 994 7399.02 846.171 7399.02 498.5C7399.02 150.829 7184.03 3 6942.57 3C6701.1 3 6486.12 150.829 6486.12 498.5ZM6741.61 498.5C6741.61 306.87 6830.4 208.318 6942.57 208.318C7053.18 208.318 7146.65 304.133 7146.65 498.5C7146.65 690.13 7054.74 788.682 6942.57 788.682C6830.4 788.682 6741.61 690.13 6741.61 498.5ZM8008.09 19.4253L8019 562.833H8003.42L7771.31 19.4253H7515.82V977.575H7755.73L7744.82 445.117H7760.39L7992.51 977.575H8248V19.4253H8008.09Z" fill="#6BC60F"/>
</svg>
