<svg width="553" height="202" viewBox="0 0 553 202" fill="none" xmlns="http://www.w3.org/2000/svg">
<path d="M81.7863 -0.000253738C84.1282 2.38225 86.4694 4.76552 88.8105 7.14878C82.8931 12.9848 76.3705 20.8075 70.6954 30.9769C69.1897 33.6745 62.3086 46.2759 58.4949 64.7331C55.8271 77.6458 55.7116 88.3382 55.9079 94.519C56.3174 107.454 58.6104 117.032 59.2347 119.538C60.6937 125.397 63.7874 135.794 70.3256 147.338C75.5124 156.495 80.6547 162.47 85.1138 167.593C92.4846 176.062 99.5691 182.303 105.078 186.655C101.627 191.553 98.176 196.451 94.7258 201.35C46.1393 152.297 10.7948 116.338 7.1073 112.39C4.66125 109.772 3.45027 107.651 2.30093 105.639C0.479148 102.448 0.190046 100.948 0.0830487 100.079C-0.288961 97.0553 0.679683 94.5905 1.19199 93.3277C2.26692 90.6803 3.75283 89.0103 4.14964 88.562C7.35601 84.9425 38.6728 49.1578 81.7863 -0.000253738Z" fill="#4D1B36"/>
<path d="M101.381 6.35466C103.845 9.13451 106.31 11.9144 108.775 14.695C106.79 17.9041 104.046 22.8769 101.75 29.3889C96.966 42.9562 97.1347 54.6662 97.3139 62.3512C97.5655 73.1409 99.3285 81.4591 100.272 85.3853C103.888 100.439 109.864 110.918 112.471 115.171C118.596 125.159 124.891 131.383 129.847 136.219C137.303 143.494 144.383 148.628 149.811 152.105C138.843 163.886 127.876 175.669 116.908 187.45C112.447 183.649 106.421 178.114 99.9017 170.77C94.5554 164.748 86.9133 156.055 80.6777 144.162C68.6267 121.178 68.4502 98.6924 68.4772 90.1511C68.4899 86.2447 68.6834 69.3525 75.5014 49.2458C77.8773 42.2407 81.9 30.6722 91.0288 18.2687C94.8629 13.0599 98.566 9.10482 101.381 6.35466Z" fill="#3F7C7D"/>
<path d="M121.713 14.694C132.435 25.6817 143.156 36.6686 153.878 47.6563C153.131 51.5756 152.367 56.7022 152.029 62.7475C151.585 70.689 152.071 76.7229 152.399 80.6186C152.824 85.6721 153.277 91.0499 154.987 98.0931C155.833 101.585 157.567 107.864 160.902 115.17C162.021 117.624 163.665 121.187 166.447 125.496C169.471 130.179 172.538 133.724 174.95 136.218C170.144 141.646 165.338 147.074 160.532 152.501C155.986 149.414 150.261 145.025 144.265 138.998C142.741 137.467 136.354 130.96 129.477 120.73C125.877 115.375 120.589 107.405 116.168 95.7106C114.145 90.3595 110.592 80.7503 109.513 67.5133C108.994 61.1399 108.012 47.364 113.58 31.3738C116.148 24.001 119.332 18.3834 121.713 14.694Z" fill="#D85730"/>
<path d="M167.558 64.3361C166.461 70.5466 166.32 75.8741 166.449 79.8246C166.669 86.6182 167.762 91.5918 168.666 95.7098C169.715 100.482 170.562 104.233 172.733 108.816C174.391 112.313 176.191 114.972 177.54 116.759C182.972 109.129 187.155 103.037 189.739 99.2843C190.328 98.4295 191.451 96.8013 191.588 94.5185C191.723 92.2624 190.835 90.4203 190.109 88.9588C188.63 85.9796 186.777 84.1558 186.412 83.7957C183.188 80.6132 176.518 73.6263 167.558 64.3361Z" fill="#E3A55C"/>
<path d="M249.502 90.2188H240.609L228.723 47.5964H228.553V90.2188H220.002V25.9186H230.091L240.779 64.224H240.951V25.9186H249.502V90.2188Z" fill="black"/>
<path d="M286.785 75.7978C286.785 85.9012 281.398 91.1377 272.676 91.1377C264.125 91.1377 258.738 85.9012 258.738 75.7978V25.9194H267.46V75.5228C267.46 80.2064 269.426 81.9524 272.59 81.9524C275.754 81.9524 277.721 80.2064 277.721 75.5228V25.9194H286.785V75.7978Z" fill="black"/>
<path d="M304.143 41.351V74.7866C304.143 79.5633 306.11 82.1357 309.702 82.1357C313.292 82.1357 315.259 79.5633 315.259 74.7866V41.351C315.259 36.5743 313.292 34.0019 309.702 34.0019C306.11 34.0019 304.143 36.5743 304.143 41.351ZM324.323 41.2594V74.8783C324.323 84.9831 318.766 91.1377 309.702 91.1377C300.638 91.1377 295.079 84.9831 295.079 74.8783V41.2594C295.079 31.1545 300.638 24.9999 309.702 24.9999C318.766 24.9999 324.323 31.1545 324.323 41.2594" fill="black"/>
<path d="M351.259 90.2188H339.545L329.454 25.9186H338.689L345.445 74.9705H345.617L352.286 25.9186H361.349L351.259 90.2188Z" fill="black"/>
<path d="M378.452 39.6963L374.775 66.7954H382.386L378.708 39.6963H378.452ZM394.784 90.2178H385.55L383.583 75.6126H373.578L371.611 90.2178H362.547L372.894 25.9191H384.438L394.784 90.2178Z" fill="black"/>
<path d="M245.926 111.348H229.223V129.852H242.707V139.008H229.223V158.447H245.926V167.605H220.002V102.188H245.926V111.348Z" fill="black"/>
<path d="M292.818 167.605H283.596V122.187H283.423L275.767 158.261H270.286L262.63 122.187H262.456V167.605H253.758V102.188H265.85L273.07 137.327H273.244L280.378 102.188H292.818V167.605Z" fill="black"/>
<path d="M315.614 116.207L311.873 143.776H319.615L315.875 116.207H315.614ZM332.23 167.606H322.835L320.834 152.748H310.655L308.654 167.606H299.433L309.959 102.189H321.703L332.23 167.606Z" fill="black"/>
<path d="M348.066 167.606H338.845V102.189H348.066V167.606Z" fill="black"/>
<path d="M370.858 116.207L367.117 143.776H374.859L371.119 116.207H370.858ZM387.474 167.606H378.079L376.078 152.748H365.899L363.898 167.606H354.677L365.203 102.189H376.947L387.474 167.606Z" fill="black"/>
<path d="M437.326 116.955V122.842L428.454 123.31V117.984C428.454 112.749 426.626 110.414 423.234 110.414C419.841 110.414 418.014 112.749 418.014 117.047V152.747C418.014 157.045 419.841 159.381 423.234 159.381C426.626 159.381 428.454 157.045 428.454 151.813V144.523L437.326 144.99V152.842C437.326 162.747 432.021 168.541 422.972 168.541C414.013 168.541 408.793 162.747 408.793 152.842V116.955C408.793 107.05 414.013 101.255 422.972 101.255C432.021 101.255 437.326 107.05 437.326 116.955Z" fill="black"/>
<path d="M454.38 167.606H445.158V102.189H454.38V167.606Z" fill="black"/>
<path d="M489.179 111.534H479.348V167.605H470.127V111.534H460.296V102.19H489.179V111.534Z" fill="black"/>
<path d="M519.977 111.534H510.147V167.605H500.925V111.534H491.095V102.19H519.977V111.534Z" fill="black"/>
<path d="M535.726 116.207L531.984 143.776H539.727L535.986 116.207H535.726ZM540.422 98.4522H533.638L526.068 88.1712H535.376L540.422 98.4522ZM552.342 167.606H542.946L540.944 152.748H530.766L528.766 167.606H519.543L530.071 102.189H541.814L552.342 167.606Z" fill="black"/>
</svg>
